<svg xmlns="http://www.w3.org/2000/svg" xml:space="preserve" stroke-linecap="round" stroke-linejoin="round" stroke-miterlimit="10" clip-rule="evenodd" viewBox="0 0 2732 2048">
  <path fill="#f0f" d="M1641.68 525.794C1641.68 235.406 1876.41 0 2165.96 0c289.56 0 524.29 235.406 524.29 525.794s-234.73 525.796-524.29 525.796c-289.55 0-524.28-235.408-524.28-525.796Z"/>
  <path d="M2251.04 47.21c2.95-8.4694 5.48-15.5045 7.61-21.1051 2.12-5.6006 4.21-10.1764 6.26-13.7274 2.53-3.41381 5.27-5.73426 8.21-6.96131 2.94-1.22704 7.17-1.56463 12.71-1.01276l265.22 11.62887c6.77-.1302 13.26.6959 19.47 2.4783 6.7 1.9194 10.62 5.3736 11.78 10.3624 1.63 5.126.74 13.6657-2.69 25.6193l-87.53 224.0567-52.4 134.004c-12.05 31.213-23.83 61.47-35.34 90.77-11.51 29.3-22.4 56.449-32.67 81.446-9.66 24.656-18.32 46.751-25.99 66.285-7.54 19.055-13.49 34.423-17.88 46.102l-7.4 20.388c-19.45 53.412-44.92 102.513-76.39 147.304-30.99 44.929-66.08 82.474-105.26 112.636-38.56 29.826-80.43 50.416-125.6 61.786-44.7 11.5-90.48 10.54-137.33-2.9-23.91-6.86-41.7-12.48-53.38-16.86-11.21-4.25-19.09-8.32-23.67-12.22-4.23-3.28-6.52-7.04-6.85-11.278 0-3.622-.68-8.473-2.04-14.556l26.31-181.07c.27-.956 2.26-2.457 5.95-4.504 4.3-2.387 7.55-3.785 9.74-4.192 19.13-1.759 38.3-4.542 57.5-8.35 19.2-3.807 36.9-9.598 53.11-17.372 16.81-8.114 31.55-18.896 44.2-32.344 13.27-13.789 23.46-31.304 30.59-52.547L2251.04 47.21Z"/>
  <text fill="#050405" font-family="NotoSansDisplay-Regular" font-size="280" transform="translate(0 688)">
<tspan x="0" y="299" textLength="1140.72">${Post-title}</tspan>
</text>
  <text fill="#050405" font-family="NotoSansDisplay-Regular" font-size="112" transform="translate(0 1202.57)">
<tspan x="0" y="120" textLength="801.92">${Post-description}</tspan>
</text>
  <text fill="#050405" font-family="CarterOne" font-size="500">
<tspan x="0" y="553" textLength="1565.43">Jothsa</tspan>
<tspan x="1565.43" y="553" font-size="200" textLength="367.188">.xyz</tspan>
</text>
  <image x:href=${post-image} fill="#050405" d="M0 1054.85c0-1.8 1.6454-3.26 3.67511-3.26H2728.32c2.03 0 3.68 1.46 3.68 3.26v989.89c0 1.8-1.65 3.26-3.68 3.26H3.67511C1.6454 2048 0 2046.54 0 2044.74v-989.89Z" opacity=".488514"/>
</svg>